{
    "asset" : {
        "generator" : "Khronos glTF Blender I/O v1.3.48",
        "version" : "2.0"
    },
    "scene" : 0,
    "scenes" : [
        {
            "name" : "Scene",
            "nodes" : [
                0
            ]
        }
    ],
    "nodes" : [
        {
            "mesh" : 0,
            "name" : "Arrow"
        }
    ],
    "materials" : [
        {
            "doubleSided" : true,
            "name" : "Arrow",
            "pbrMetallicRoughness" : {}
        }
    ],
    "meshes" : [
        {
            "name" : "Arrow",
            "primitives" : [
                {
                    "attributes" : {
                        "POSITION" : 0,
                        "NORMAL" : 1,
                        "TEXCOORD_0" : 2
                    },
                    "indices" : 3,
                    "material" : 0
                }
            ]
        }
    ],
    "accessors" : [
        {
            "bufferView" : 0,
            "componentType" : 5126,
            "count" : 2404,
            "max" : [
                0.03306931257247925,
                0.8234835863113403,
                0.03307168185710907
            ],
            "min" : [
                -0.03307168185710907,
                -5.47008660589654e-08,
                -0.03306931257247925
            ],
            "type" : "VEC3"
        },
        {
            "bufferView" : 1,
            "componentType" : 5126,
            "count" : 2404,
            "type" : "VEC3"
        },
        {
            "bufferView" : 2,
            "componentType" : 5126,
            "count" : 2404,
            "type" : "VEC2"
        },
        {
            "bufferView" : 3,
            "componentType" : 5123,
            "count" : 7980,
            "type" : "SCALAR"
        }
    ],
    "bufferViews" : [
        {
            "buffer" : 0,
            "byteLength" : 28848,
            "byteOffset" : 0
        },
        {
            "buffer" : 0,
            "byteLength" : 28848,
            "byteOffset" : 28848
        },
        {
            "buffer" : 0,
            "byteLength" : 19232,
            "byteOffset" : 57696
        },
        {
            "buffer" : 0,
            "byteLength" : 15960,
            "byteOffset" : 76928
        }
    ],
    "buffers" : [
        {
            "byteLength" : 92888,
            "uri" : "data:application/octet-stream;base64,"
        }
    ]
}
